<svg height="512" viewBox="0 0 512 512" width="512" xmlns="http://www.w3.org/2000/svg"><g id="flat"><path d="m104 240-26.463 8.821a66.6 66.6 0 0 0 -45.537 63.179v93.97a55.9 55.9 0 0 0 49.724 55.555l22.276 2.475 8-16z" fill="#55785f"/><path d="m408 240 26.463 8.821a66.6 66.6 0 0 1 45.537 63.179v93.97a55.9 55.9 0 0 1 -49.724 55.555l-22.276 2.475-8-32z" fill="#55785f"/><path d="m216 88v16h-72v-16l11.811-64h48z" fill="#663a0c"/><path d="m296 88v16h72v-16l-11.811-64h-48z" fill="#663a0c"/><path d="m272 96a8 8 0 0 1 -8-8v-16a8 8 0 0 0 -16 0v16a8 8 0 0 1 -16 0v-16a24 24 0 0 1 48 0v16a8 8 0 0 1 -8 8z" fill="#834b10"/><path d="m408 240v224a24.006 24.006 0 0 1 -24 24h-256a24.006 24.006 0 0 1 -24-24v-224l14.78-96.09 1.22-7.91v-20a28.005 28.005 0 0 1 28-28h216a28.005 28.005 0 0 1 28 28v20l1.22 7.91z" fill="#5e8569"/><path d="m480 312a66.6 66.6 0 0 0 -45.537-63.179l-26.463-8.821v88h4.223a151.554 151.554 0 0 0 67.777-16z" fill="#6b9777"/><path d="m32 312a66.6 66.6 0 0 1 45.537-63.179l26.463-8.821v88h-4.223a151.554 151.554 0 0 1 -67.777-16z" fill="#6b9777"/><rect fill="#55785f" height="152" rx="18" width="224" x="144" y="296"/><path d="m162 296h188a18 18 0 0 1 18 18v28a34 34 0 0 1 -34 34h-156a34 34 0 0 1 -34-34v-28a18 18 0 0 1 18-18z" fill="#6b9777"/><path d="m342 232h-172a26 26 0 0 1 -26-26v-38h224v38a26 26 0 0 1 -26 26z" fill="#6b9777"/><path d="m196 416a20 20 0 0 1 -20-20v-260h40v260a20 20 0 0 1 -20 20z" fill="#834b10"/><path d="m316 416a20 20 0 0 1 -20-20v-260h40v260a20 20 0 0 1 -20 20z" fill="#834b10"/><path d="m393.22 143.91a8.246 8.246 0 0 1 -1.22.09h-272a8.246 8.246 0 0 1 -1.22-.09l1.22-7.91v-8h272v8z" fill="#55785f"/><path d="m184 304h24v8h-24z" fill="#663a0c"/><path d="m304 304h24v8h-24z" fill="#663a0c"/><path d="m216 344h-40a8 8 0 0 1 -8-8v-40a8 8 0 0 1 8-8h40a8 8 0 0 1 8 8v40a8 8 0 0 1 -8 8zm-32-16h24v-24h-24z" fill="#da922a"/><path d="m336 344h-40a8 8 0 0 1 -8-8v-40a8 8 0 0 1 8-8h40a8 8 0 0 1 8 8v40a8 8 0 0 1 -8 8zm-32-16h24v-24h-24z" fill="#da922a"/><g fill="#663a0c"><path d="m176 144h40v16h-40z"/><path d="m296 144h40v16h-40z"/></g></g></svg>