<?xml version="1.0" encoding="iso-8859-1"?>
<!-- Generator: Adobe Illustrator 19.0.0, SVG Export Plug-In . SVG Version: 6.00 Build 0)  -->
<svg version="1.1" id="Capa_1" xmlns="http://www.w3.org/2000/svg" xmlns:xlink="http://www.w3.org/1999/xlink" x="0px" y="0px"
	 viewBox="0 0 464 464" style="enable-background:new 0 0 464 464;" xml:space="preserve">
<path style="fill:#A15D30;" d="M0,306.972v-22.328c-0.001-14.998,10.415-27.985,25.056-31.24L144,226.972l152-96l25.176,22.656
	c31.363,28.213,78.786,28.788,110.824,1.344l3.376,6.752C454.2,199.37,464,240.882,464,282.972H328l-120,24H0z"/>
<g>
	<path style="fill:#824B27;" d="M328,290.972c-4.418,0.004-8.004-3.574-8.008-7.992c-0.001-0.965,0.172-1.921,0.512-2.824
		c1.048-2.776,26.616-68.208,125.552-92.944c4.249-1.211,8.675,1.253,9.886,5.502c1.211,4.249-1.253,8.675-5.502,9.886
		c-0.164,0.047-0.329,0.088-0.496,0.124c-90.88,22.72-114.232,82.456-114.448,83.056C334.325,288.905,331.337,290.974,328,290.972
		L328,290.972z"/>
	<path style="fill:#824B27;" d="M310.656,286.532c-21.039-31.82-59.475-47.433-96.744-39.296l-48.992,10.496l-3.728-9.312
		c-4.251-10.635-0.395-22.791,9.208-29.032c4.088-2.648,127.592-80.52,131.456-83.024l-11.032-11.336
		c-3.888,2.52-124.984,78.248-129.12,80.928c-16.011,10.407-22.447,30.67-15.376,48.408l8.744,21.84l62.184-13.328
		c30.847-6.703,62.645,6.213,80.08,32.528c2.45,3.678,7.418,4.674,11.096,2.224S313.106,290.21,310.656,286.532z"/>
</g>
<g>
	<path style="fill:#484A4D;" d="M161.134,186.432l13.52-8.544l25.632,40.56l-13.52,8.544L161.134,186.432z"/>
	<path style="fill:#484A4D;" d="M188.289,169.421l13.534-8.549l25.638,40.589l-13.534,8.549L188.289,169.421z"/>
	<path style="fill:#484A4D;" d="M215.347,152.333l13.527-8.545l25.635,40.582l-13.527,8.545L215.347,152.333z"/>
	<path style="fill:#484A4D;" d="M242.364,135.241l13.534-8.549l25.638,40.589l-13.534,8.549L242.364,135.241z"/>
	<path style="fill:#484A4D;" d="M328,282.972h136v56H328V282.972z"/>
	<path style="fill:#484A4D;" d="M328,314.972l-120,24H0v-32h208l120-24V314.972z"/>
</g>
<g>
</g>
<g>
</g>
<g>
</g>
<g>
</g>
<g>
</g>
<g>
</g>
<g>
</g>
<g>
</g>
<g>
</g>
<g>
</g>
<g>
</g>
<g>
</g>
<g>
</g>
<g>
</g>
<g>
</g>
</svg>
