<?xml version="1.0" encoding="iso-8859-1"?>
<!-- Generator: Adobe Illustrator 19.0.0, SVG Export Plug-In . SVG Version: 6.00 Build 0)  -->
<svg version="1.1" id="Capa_1" xmlns="http://www.w3.org/2000/svg" xmlns:xlink="http://www.w3.org/1999/xlink" x="0px" y="0px"
	 viewBox="0 0 448 448" style="enable-background:new 0 0 448 448;" xml:space="preserve">
<g>
	<g>
		<path d="M367.191,208L367.191,208c-4.95-49.84-32.808-92.89-72.85-118.63L272,0H144l-22.36,89.443
			C77.387,117.905,48,167.474,48,224c0,56.525,29.386,106.093,73.64,134.556L144,448h128l22.342-89.371
			c40.041-25.742,67.899-68.791,72.849-118.629H400v-32H367.191z M208,352c-70.58,0-128-57.421-128-128S137.42,96,208,96
			s128,57.421,128,128S278.58,352,208,352z"/>
	</g>
</g>
<g>
	<g>
		<polygon points="224,225.231 224,144 192,144 192,235.088 232.383,293.359 258.544,275.264 		"/>
	</g>
</g>
<g>
</g>
<g>
</g>
<g>
</g>
<g>
</g>
<g>
</g>
<g>
</g>
<g>
</g>
<g>
</g>
<g>
</g>
<g>
</g>
<g>
</g>
<g>
</g>
<g>
</g>
<g>
</g>
<g>
</g>
</svg>
